<?xml version="1.0" encoding="UTF-8"?>
<!DOCTYPE svg PUBLIC "-//W3C//DTD SVG 1.1//EN" "http://www.w3.org/Graphics/SVG/1.1/DTD/svg11.dtd">
<svg version="1.2" width="127mm" height="127mm" viewBox="0 0 12700 12700" preserveAspectRatio="xMidYMid" fill-rule="evenodd" stroke-width="28.222" stroke-linejoin="round" xmlns="http://www.w3.org/2000/svg" xmlns:ooo="http://xml.openoffice.org/svg/export" xmlns:xlink="http://www.w3.org/1999/xlink" xmlns:presentation="http://sun.com/xmlns/staroffice/presentation" xmlns:smil="http://www.w3.org/2001/SMIL20/" xmlns:anim="urn:oasis:names:tc:opendocument:xmlns:animation:1.0" xml:space="preserve">
 <defs class="ClipPathGroup">
  <clipPath id="presentation_clip_path" clipPathUnits="userSpaceOnUse">
   <rect x="0" y="0" width="12700" height="12700"/>
  </clipPath>
  <clipPath id="presentation_clip_path_shrink" clipPathUnits="userSpaceOnUse">
   <rect x="12" y="12" width="12675" height="12675"/>
  </clipPath>
 </defs>
 <defs class="TextShapeIndex">
  <g ooo:slide="id1" ooo:id-list="id3 id4 id5 id6 id7 id8 id9 id10 id11 id12 id13 id14"/>
 </defs>
 <defs class="EmbeddedBulletChars">
  <g id="bullet-char-template-57356" transform="scale(0.00048828125,-0.00048828125)">
   <path d="M 580,1141 L 1163,571 580,0 -4,571 580,1141 Z"/>
  </g>
  <g id="bullet-char-template-57354" transform="scale(0.00048828125,-0.00048828125)">
   <path d="M 8,1128 L 1137,1128 1137,0 8,0 8,1128 Z"/>
  </g>
  <g id="bullet-char-template-10146" transform="scale(0.00048828125,-0.00048828125)">
   <path d="M 174,0 L 602,739 174,1481 1456,739 174,0 Z M 1358,739 L 309,1346 659,739 1358,739 Z"/>
  </g>
  <g id="bullet-char-template-10132" transform="scale(0.00048828125,-0.00048828125)">
   <path d="M 2015,739 L 1276,0 717,0 1260,543 174,543 174,936 1260,936 717,1481 1274,1481 2015,739 Z"/>
  </g>
  <g id="bullet-char-template-10007" transform="scale(0.00048828125,-0.00048828125)">
   <path d="M 0,-2 C -7,14 -16,27 -25,37 L 356,567 C 262,823 215,952 215,954 215,979 228,992 255,992 264,992 276,990 289,987 310,991 331,999 354,1012 L 381,999 492,748 772,1049 836,1024 860,1049 C 881,1039 901,1025 922,1006 886,937 835,863 770,784 769,783 710,716 594,584 L 774,223 C 774,196 753,168 711,139 L 727,119 C 717,90 699,76 672,76 641,76 570,178 457,381 L 164,-76 C 142,-110 111,-127 72,-127 30,-127 9,-110 8,-76 1,-67 -2,-52 -2,-32 -2,-23 -1,-13 0,-2 Z"/>
  </g>
  <g id="bullet-char-template-10004" transform="scale(0.00048828125,-0.00048828125)">
   <path d="M 285,-33 C 182,-33 111,30 74,156 52,228 41,333 41,471 41,549 55,616 82,672 116,743 169,778 240,778 293,778 328,747 346,684 L 369,508 C 377,444 397,411 428,410 L 1163,1116 C 1174,1127 1196,1133 1229,1133 1271,1133 1292,1118 1292,1087 L 1292,965 C 1292,929 1282,901 1262,881 L 442,47 C 390,-6 338,-33 285,-33 Z"/>
  </g>
  <g id="bullet-char-template-9679" transform="scale(0.00048828125,-0.00048828125)">
   <path d="M 813,0 C 632,0 489,54 383,161 276,268 223,411 223,592 223,773 276,916 383,1023 489,1130 632,1184 813,1184 992,1184 1136,1130 1245,1023 1353,916 1407,772 1407,592 1407,412 1353,268 1245,161 1136,54 992,0 813,0 Z"/>
  </g>
  <g id="bullet-char-template-8226" transform="scale(0.00048828125,-0.00048828125)">
   <path d="M 346,457 C 273,457 209,483 155,535 101,586 74,649 74,723 74,796 101,859 155,911 209,963 273,989 346,989 419,989 480,963 531,910 582,859 608,796 608,723 608,648 583,586 532,535 482,483 420,457 346,457 Z"/>
  </g>
  <g id="bullet-char-template-8211" transform="scale(0.00048828125,-0.00048828125)">
   <path d="M -4,459 L 1135,459 1135,606 -4,606 -4,459 Z"/>
  </g>
  <g id="bullet-char-template-61548" transform="scale(0.00048828125,-0.00048828125)">
   <path d="M 173,740 C 173,903 231,1043 346,1159 462,1274 601,1332 765,1332 928,1332 1067,1274 1183,1159 1299,1043 1357,903 1357,740 1357,577 1299,437 1183,322 1067,206 928,148 765,148 601,148 462,206 346,322 231,437 173,577 173,740 Z"/>
  </g>
 </defs>
 <defs class="TextEmbeddedBitmaps"/>
 <g>
  <g id="id2" class="Master_Slide">
   <g id="bg-id2" class="Background"/>
   <g id="bo-id2" class="BackgroundObjects"/>
  </g>
 </g>
 <g class="SlideGroup">
  <g>
   <g id="container-id1">
    <g id="id1" class="Slide" clip-path="url(#presentation_clip_path)">
     <g class="Page">
      <g class="com.sun.star.drawing.CustomShape">
       <g id="id3">
        <rect class="BoundingBox" stroke="none" fill="none" x="3486" y="7353" width="1655" height="1655"/>
        <path fill="rgb(0,0,0)" stroke="none" d="M 4313,7354 C 4465,7354 4594,7389 4726,7465 4858,7541 4952,7635 5028,7767 5104,7899 5139,8028 5139,8180 5139,8332 5104,8461 5028,8593 4952,8725 4858,8819 4726,8895 4594,8971 4465,9006 4313,9006 4161,9006 4032,8971 3900,8895 3768,8819 3674,8725 3598,8593 3522,8461 3487,8332 3487,8180 3487,8028 3522,7899 3598,7767 3674,7635 3768,7541 3900,7465 4032,7389 4161,7354 4313,7354 L 4313,7354 Z"/>
        <path fill="none" stroke="rgb(0,0,0)" d="M 4313,7354 C 4465,7354 4594,7389 4726,7465 4858,7541 4952,7635 5028,7767 5104,7899 5139,8028 5139,8180 5139,8332 5104,8461 5028,8593 4952,8725 4858,8819 4726,8895 4594,8971 4465,9006 4313,9006 4161,9006 4032,8971 3900,8895 3768,8819 3674,8725 3598,8593 3522,8461 3487,8332 3487,8180 3487,8028 3522,7899 3598,7767 3674,7635 3768,7541 3900,7465 4032,7389 4161,7354 4313,7354 L 4313,7354 Z"/>
       </g>
      </g>
      <g class="com.sun.star.drawing.CustomShape">
       <g id="id4">
        <rect class="BoundingBox" stroke="none" fill="none" x="4987" y="3416" width="2695" height="2691"/>
        <path fill="rgb(0,0,0)" stroke="none" d="M 6334,3417 C 6582,3417 6793,3473 7007,3597 7222,3721 7376,3875 7500,4089 7624,4303 7681,4514 7681,4761 7681,5008 7624,5219 7500,5433 7376,5647 7222,5801 7007,5925 6793,6049 6582,6105 6334,6105 6086,6105 5875,6049 5661,5925 5446,5801 5292,5647 5168,5433 5044,5219 4988,5008 4988,4761 4988,4514 5044,4303 5168,4089 5292,3875 5446,3721 5661,3597 5875,3473 6086,3417 6334,3417 L 6334,3417 Z"/>
        <path fill="none" stroke="rgb(0,0,0)" d="M 6334,3417 C 6582,3417 6793,3473 7007,3597 7222,3721 7376,3875 7500,4089 7624,4303 7681,4514 7681,4761 7681,5008 7624,5219 7500,5433 7376,5647 7222,5801 7007,5925 6793,6049 6582,6105 6334,6105 6086,6105 5875,6049 5661,5925 5446,5801 5292,5647 5168,5433 5044,5219 4988,5008 4988,4761 4988,4514 5044,4303 5168,4089 5292,3875 5446,3721 5661,3597 5875,3473 6086,3417 6334,3417 L 6334,3417 Z"/>
       </g>
      </g>
      <g class="com.sun.star.drawing.CustomShape">
       <g id="id5">
        <rect class="BoundingBox" stroke="none" fill="none" x="4987" y="3415" width="2695" height="2691"/>
        <path fill="rgb(0,0,0)" stroke="none" d="M 6334,3416 C 6086,3416 5875,3472 5661,3596 5446,3720 5292,3874 5168,4088 5044,4302 4988,4513 4988,4760 4988,5007 5044,5218 5168,5432 5292,5646 5446,5800 5661,5924 5875,6048 6086,6104 6334,6104 6582,6104 6793,6048 7007,5924 7222,5800 7376,5646 7500,5432 7624,5218 7681,5007 7681,4760 7681,4513 7624,4302 7500,4088 7376,3874 7222,3720 7007,3596 6793,3472 6582,3416 6334,3416 L 6334,3416 Z"/>
        <path fill="none" stroke="rgb(0,0,0)" d="M 6334,3416 C 6086,3416 5875,3472 5661,3596 5446,3720 5292,3874 5168,4088 5044,4302 4988,4513 4988,4760 4988,5007 5044,5218 5168,5432 5292,5646 5446,5800 5661,5924 5875,6048 6086,6104 6334,6104 6582,6104 6793,6048 7007,5924 7222,5800 7376,5646 7500,5432 7624,5218 7681,5007 7681,4760 7681,4513 7624,4302 7500,4088 7376,3874 7222,3720 7007,3596 6793,3472 6582,3416 6334,3416 L 6334,3416 Z"/>
       </g>
      </g>
      <g class="com.sun.star.drawing.ConnectorShape">
       <g id="id6">
        <rect class="BoundingBox" stroke="none" fill="none" x="4668" y="6105" width="1777" height="1946"/>
        <path fill="none" stroke="rgb(0,0,0)" d="M 4669,8049 C 4669,6966 6052,7781 6298,6531"/>
        <path fill="rgb(0,0,0)" stroke="none" d="M 6335,6105 L 6145,6539 6443,6567 6335,6105 Z"/>
       </g>
      </g>
      <g class="com.sun.star.drawing.CustomShape">
       <g id="id7">
        <rect class="BoundingBox" stroke="none" fill="none" x="7525" y="7352" width="1655" height="1655"/>
        <path fill="rgb(0,0,0)" stroke="none" d="M 8352,7353 C 8200,7353 8071,7388 7939,7464 7807,7540 7713,7634 7637,7766 7561,7898 7526,8027 7526,8179 7526,8331 7561,8460 7637,8592 7713,8724 7807,8818 7939,8894 8071,8970 8200,9005 8352,9005 8504,9005 8633,8970 8765,8894 8897,8818 8991,8724 9067,8592 9143,8460 9178,8331 9178,8179 9178,8027 9143,7898 9067,7766 8991,7634 8897,7540 8765,7464 8633,7388 8504,7353 8352,7353 L 8352,7353 Z"/>
        <path fill="none" stroke="rgb(0,0,0)" d="M 8352,7353 C 8200,7353 8071,7388 7939,7464 7807,7540 7713,7634 7637,7766 7561,7898 7526,8027 7526,8179 7526,8331 7561,8460 7637,8592 7713,8724 7807,8818 7939,8894 8071,8970 8200,9005 8352,9005 8504,9005 8633,8970 8765,8894 8897,8818 8991,8724 9067,8592 9143,8460 9178,8331 9178,8179 9178,8027 9143,7898 9067,7766 8991,7634 8897,7540 8765,7464 8633,7388 8504,7353 8352,7353 Z"/>
       </g>
      </g>
      <g class="com.sun.star.drawing.CustomShape">
       <g id="id8">
        <rect class="BoundingBox" stroke="none" fill="none" x="4987" y="3415" width="2695" height="2691"/>
        <path fill="rgb(0,0,0)" stroke="none" d="M 6334,3416 C 6086,3416 5875,3472 5661,3596 5446,3720 5292,3874 5168,4088 5044,4302 4988,4513 4988,4760 4988,5007 5044,5218 5168,5432 5292,5646 5446,5800 5661,5924 5875,6048 6086,6104 6334,6104 6582,6104 6793,6048 7007,5924 7222,5800 7376,5646 7500,5432 7624,5218 7681,5007 7681,4760 7681,4513 7624,4302 7500,4088 7376,3874 7222,3720 7007,3596 6793,3472 6582,3416 6334,3416 L 6334,3416 Z"/>
        <path fill="none" stroke="rgb(0,0,0)" d="M 6334,3416 C 6086,3416 5875,3472 5661,3596 5446,3720 5292,3874 5168,4088 5044,4302 4988,4513 4988,4760 4988,5007 5044,5218 5168,5432 5292,5646 5446,5800 5661,5924 5875,6048 6086,6104 6334,6104 6582,6104 6793,6048 7007,5924 7222,5800 7376,5646 7500,5432 7624,5218 7681,5007 7681,4760 7681,4513 7624,4302 7500,4088 7376,3874 7222,3720 7007,3596 6793,3472 6582,3416 6334,3416 L 6334,3416 Z"/>
       </g>
      </g>
      <g class="com.sun.star.drawing.CustomShape">
       <g id="id9">
        <rect class="BoundingBox" stroke="none" fill="none" x="4987" y="3414" width="2695" height="2691"/>
        <path fill="rgb(0,0,0)" stroke="none" d="M 6334,3415 C 6582,3415 6793,3471 7007,3595 7222,3719 7376,3873 7500,4087 7624,4301 7681,4512 7681,4759 7681,5006 7624,5217 7500,5431 7376,5645 7222,5799 7007,5923 6793,6047 6582,6103 6334,6103 6086,6103 5875,6047 5661,5923 5446,5799 5292,5645 5168,5431 5044,5217 4988,5006 4988,4759 4988,4512 5044,4301 5168,4087 5292,3873 5446,3719 5661,3595 5875,3471 6086,3415 6334,3415 L 6334,3415 Z"/>
        <path fill="none" stroke="rgb(0,0,0)" d="M 6334,3415 C 6582,3415 6793,3471 7007,3595 7222,3719 7376,3873 7500,4087 7624,4301 7681,4512 7681,4759 7681,5006 7624,5217 7500,5431 7376,5645 7222,5799 7007,5923 6793,6047 6582,6103 6334,6103 6086,6103 5875,6047 5661,5923 5446,5799 5292,5645 5168,5431 5044,5217 4988,5006 4988,4759 4988,4512 5044,4301 5168,4087 5292,3873 5446,3719 5661,3595 5875,3471 6086,3415 6334,3415 L 6334,3415 Z"/>
       </g>
      </g>
      <g class="com.sun.star.drawing.ConnectorShape">
       <g id="id10">
        <rect class="BoundingBox" stroke="none" fill="none" x="6225" y="6104" width="1776" height="1946"/>
        <path fill="none" stroke="rgb(0,0,0)" d="M 7999,8048 C 7999,6965 6617,7780 6371,6530"/>
        <path fill="rgb(0,0,0)" stroke="none" d="M 6334,6104 L 6226,6566 6524,6538 6334,6104 Z"/>
       </g>
      </g>
      <g class="Group">
       <g class="com.sun.star.drawing.CustomShape">
        <g id="id11">
         <rect class="BoundingBox" stroke="none" fill="none" x="7657" y="7612" width="1385" height="1389"/>
         <path fill="rgb(0,0,0)" stroke="none" d="M 8349,7613 C 8476,7613 8584,7642 8695,7706 8805,7770 8884,7849 8947,7960 9011,8070 9040,8178 9040,8306 9040,8434 9011,8542 8947,8653 8884,8763 8805,8842 8695,8906 8584,8970 8476,8999 8349,8999 8222,8999 8114,8970 8004,8906 7893,8842 7814,8763 7751,8653 7687,8542 7658,8434 7658,8306 7658,8178 7687,8070 7751,7960 7814,7849 7893,7770 8003,7706 8114,7642 8222,7613 8349,7613 L 8349,7613 Z"/>
         <path fill="none" stroke="rgb(0,0,0)" d="M 8349,7613 C 8476,7613 8584,7642 8695,7706 8805,7770 8884,7849 8947,7960 9011,8070 9040,8178 9040,8306 9040,8434 9011,8542 8947,8653 8884,8763 8805,8842 8695,8906 8584,8970 8476,8999 8349,8999 8222,8999 8114,8970 8004,8906 7893,8842 7814,8763 7751,8653 7687,8542 7658,8434 7658,8306 7658,8178 7687,8070 7751,7960 7814,7849 7893,7770 8003,7706 8114,7642 8222,7613 8349,7613 Z"/>
        </g>
       </g>
       <g class="com.sun.star.drawing.CustomShape">
        <g id="id12">
         <rect class="BoundingBox" stroke="none" fill="none" x="7657" y="7612" width="1385" height="1389"/>
         <path fill="rgb(0,0,0)" stroke="none" d="M 8349,7613 C 8222,7613 8114,7642 8004,7706 7893,7770 7814,7849 7751,7960 7687,8070 7658,8178 7658,8306 7658,8434 7687,8542 7751,8653 7814,8763 7893,8842 8004,8906 8114,8970 8222,8999 8349,8999 8476,8999 8584,8970 8695,8906 8805,8842 8884,8763 8947,8653 9011,8542 9040,8434 9040,8306 9040,8178 9011,8070 8947,7960 8884,7849 8805,7770 8695,7706 8584,7642 8476,7613 8349,7613 L 8349,7613 Z"/>
         <path fill="none" stroke="rgb(0,0,0)" d="M 8349,7613 C 8222,7613 8114,7642 8004,7706 7893,7770 7814,7849 7751,7960 7687,8070 7658,8178 7658,8306 7658,8434 7687,8542 7751,8653 7814,8763 7893,8842 8004,8906 8114,8970 8222,8999 8349,8999 8476,8999 8584,8970 8695,8906 8805,8842 8884,8763 8947,8653 9011,8542 9040,8434 9040,8306 9040,8178 9011,8070 8947,7960 8884,7849 8805,7770 8695,7706 8584,7642 8476,7613 8349,7613 Z"/>
        </g>
       </g>
       <g class="com.sun.star.drawing.CustomShape">
        <g id="id13">
         <rect class="BoundingBox" stroke="none" fill="none" x="7657" y="7612" width="1385" height="1389"/>
         <path fill="rgb(0,0,0)" stroke="none" d="M 8349,7613 C 8222,7613 8114,7642 8004,7706 7893,7770 7814,7849 7751,7960 7687,8070 7658,8178 7658,8306 7658,8434 7687,8542 7751,8653 7814,8763 7893,8842 8004,8906 8114,8970 8222,8999 8349,8999 8476,8999 8584,8970 8695,8906 8805,8842 8884,8763 8947,8653 9011,8542 9040,8434 9040,8306 9040,8178 9011,8070 8947,7960 8884,7849 8805,7770 8695,7706 8584,7642 8476,7613 8349,7613 L 8349,7613 Z"/>
         <path fill="none" stroke="rgb(0,0,0)" d="M 8349,7613 C 8222,7613 8114,7642 8004,7706 7893,7770 7814,7849 7751,7960 7687,8070 7658,8178 7658,8306 7658,8434 7687,8542 7751,8653 7814,8763 7893,8842 8004,8906 8114,8970 8222,8999 8349,8999 8476,8999 8584,8970 8695,8906 8805,8842 8884,8763 8947,8653 9011,8542 9040,8434 9040,8306 9040,8178 9011,8070 8947,7960 8884,7849 8805,7770 8695,7706 8584,7642 8476,7613 8349,7613 Z"/>
        </g>
       </g>
       <g class="com.sun.star.drawing.CustomShape">
        <g id="id14">
         <rect class="BoundingBox" stroke="none" fill="none" x="7657" y="7611" width="1385" height="1389"/>
         <path fill="rgb(0,0,0)" stroke="none" d="M 8349,7612 C 8476,7612 8584,7641 8695,7705 8805,7769 8884,7848 8947,7959 9011,8069 9040,8177 9040,8305 9040,8433 9011,8541 8947,8652 8884,8762 8805,8841 8695,8905 8584,8969 8476,8998 8349,8998 8222,8998 8114,8969 8004,8905 7893,8841 7814,8762 7751,8652 7687,8541 7658,8433 7658,8305 7658,8177 7687,8069 7751,7959 7814,7848 7893,7769 8003,7705 8114,7641 8222,7612 8349,7612 L 8349,7612 Z"/>
         <path fill="none" stroke="rgb(0,0,0)" d="M 8349,7612 C 8476,7612 8584,7641 8695,7705 8805,7769 8884,7848 8947,7959 9011,8069 9040,8177 9040,8305 9040,8433 9011,8541 8947,8652 8884,8762 8805,8841 8695,8905 8584,8969 8476,8998 8349,8998 8222,8998 8114,8969 8004,8905 7893,8841 7814,8762 7751,8652 7687,8541 7658,8433 7658,8305 7658,8177 7687,8069 7751,7959 7814,7848 7893,7769 8003,7705 8114,7641 8222,7612 8349,7612 Z"/>
        </g>
       </g>
      </g>
     </g>
    </g>
   </g>
  </g>
 </g>
</svg>