<?xml version="1.0" encoding="UTF-8"?>
<!DOCTYPE svg PUBLIC "-//W3C//DTD SVG 1.1//EN" "http://www.w3.org/Graphics/SVG/1.1/DTD/svg11.dtd">
<svg version="1.2" width="127mm" height="127mm" viewBox="0 0 12700 12700" preserveAspectRatio="xMidYMid" fill-rule="evenodd" stroke-width="28.222" stroke-linejoin="round" xmlns="http://www.w3.org/2000/svg" xmlns:ooo="http://xml.openoffice.org/svg/export" xmlns:xlink="http://www.w3.org/1999/xlink" xmlns:presentation="http://sun.com/xmlns/staroffice/presentation" xmlns:smil="http://www.w3.org/2001/SMIL20/" xmlns:anim="urn:oasis:names:tc:opendocument:xmlns:animation:1.0" xml:space="preserve">
 <defs class="ClipPathGroup">
  <clipPath id="presentation_clip_path" clipPathUnits="userSpaceOnUse">
   <rect x="0" y="0" width="12700" height="12700"/>
  </clipPath>
  <clipPath id="presentation_clip_path_shrink" clipPathUnits="userSpaceOnUse">
   <rect x="12" y="12" width="12675" height="12675"/>
  </clipPath>
 </defs>
 <defs class="TextShapeIndex">
  <g ooo:slide="id1" ooo:id-list="id3 id4 id5 id6 id7 id8 id9 id10 id11 id12 id13 id14 id15 id16 id17 id18 id19 id20 id21 id22"/>
 </defs>
 <defs class="EmbeddedBulletChars">
  <g id="bullet-char-template-57356" transform="scale(0.00048828125,-0.00048828125)">
   <path d="M 580,1141 L 1163,571 580,0 -4,571 580,1141 Z"/>
  </g>
  <g id="bullet-char-template-57354" transform="scale(0.00048828125,-0.00048828125)">
   <path d="M 8,1128 L 1137,1128 1137,0 8,0 8,1128 Z"/>
  </g>
  <g id="bullet-char-template-10146" transform="scale(0.00048828125,-0.00048828125)">
   <path d="M 174,0 L 602,739 174,1481 1456,739 174,0 Z M 1358,739 L 309,1346 659,739 1358,739 Z"/>
  </g>
  <g id="bullet-char-template-10132" transform="scale(0.00048828125,-0.00048828125)">
   <path d="M 2015,739 L 1276,0 717,0 1260,543 174,543 174,936 1260,936 717,1481 1274,1481 2015,739 Z"/>
  </g>
  <g id="bullet-char-template-10007" transform="scale(0.00048828125,-0.00048828125)">
   <path d="M 0,-2 C -7,14 -16,27 -25,37 L 356,567 C 262,823 215,952 215,954 215,979 228,992 255,992 264,992 276,990 289,987 310,991 331,999 354,1012 L 381,999 492,748 772,1049 836,1024 860,1049 C 881,1039 901,1025 922,1006 886,937 835,863 770,784 769,783 710,716 594,584 L 774,223 C 774,196 753,168 711,139 L 727,119 C 717,90 699,76 672,76 641,76 570,178 457,381 L 164,-76 C 142,-110 111,-127 72,-127 30,-127 9,-110 8,-76 1,-67 -2,-52 -2,-32 -2,-23 -1,-13 0,-2 Z"/>
  </g>
  <g id="bullet-char-template-10004" transform="scale(0.00048828125,-0.00048828125)">
   <path d="M 285,-33 C 182,-33 111,30 74,156 52,228 41,333 41,471 41,549 55,616 82,672 116,743 169,778 240,778 293,778 328,747 346,684 L 369,508 C 377,444 397,411 428,410 L 1163,1116 C 1174,1127 1196,1133 1229,1133 1271,1133 1292,1118 1292,1087 L 1292,965 C 1292,929 1282,901 1262,881 L 442,47 C 390,-6 338,-33 285,-33 Z"/>
  </g>
  <g id="bullet-char-template-9679" transform="scale(0.00048828125,-0.00048828125)">
   <path d="M 813,0 C 632,0 489,54 383,161 276,268 223,411 223,592 223,773 276,916 383,1023 489,1130 632,1184 813,1184 992,1184 1136,1130 1245,1023 1353,916 1407,772 1407,592 1407,412 1353,268 1245,161 1136,54 992,0 813,0 Z"/>
  </g>
  <g id="bullet-char-template-8226" transform="scale(0.00048828125,-0.00048828125)">
   <path d="M 346,457 C 273,457 209,483 155,535 101,586 74,649 74,723 74,796 101,859 155,911 209,963 273,989 346,989 419,989 480,963 531,910 582,859 608,796 608,723 608,648 583,586 532,535 482,483 420,457 346,457 Z"/>
  </g>
  <g id="bullet-char-template-8211" transform="scale(0.00048828125,-0.00048828125)">
   <path d="M -4,459 L 1135,459 1135,606 -4,606 -4,459 Z"/>
  </g>
  <g id="bullet-char-template-61548" transform="scale(0.00048828125,-0.00048828125)">
   <path d="M 173,740 C 173,903 231,1043 346,1159 462,1274 601,1332 765,1332 928,1332 1067,1274 1183,1159 1299,1043 1357,903 1357,740 1357,577 1299,437 1183,322 1067,206 928,148 765,148 601,148 462,206 346,322 231,437 173,577 173,740 Z"/>
  </g>
 </defs>
 <defs class="TextEmbeddedBitmaps"/>
 <g>
  <g id="id2" class="Master_Slide">
   <g id="bg-id2" class="Background"/>
   <g id="bo-id2" class="BackgroundObjects"/>
  </g>
 </g>
 <g class="SlideGroup">
  <g>
   <g id="container-id1">
    <g id="id1" class="Slide" clip-path="url(#presentation_clip_path)">
     <g class="Page">
      <g class="com.sun.star.drawing.CustomShape">
       <g id="id3">
        <rect class="BoundingBox" stroke="none" fill="none" x="3486" y="7353" width="1655" height="1655"/>
        <path fill="rgb(0,0,0)" stroke="none" d="M 4313,7354 C 4465,7354 4594,7389 4726,7465 4858,7541 4952,7635 5028,7767 5104,7899 5139,8028 5139,8180 5139,8332 5104,8461 5028,8593 4952,8725 4858,8819 4726,8895 4594,8971 4465,9006 4313,9006 4161,9006 4032,8971 3900,8895 3768,8819 3674,8725 3598,8593 3522,8461 3487,8332 3487,8180 3487,8028 3522,7899 3598,7767 3674,7635 3768,7541 3900,7465 4032,7389 4161,7354 4313,7354 L 4313,7354 Z"/>
        <path fill="none" stroke="rgb(0,0,0)" d="M 4313,7354 C 4465,7354 4594,7389 4726,7465 4858,7541 4952,7635 5028,7767 5104,7899 5139,8028 5139,8180 5139,8332 5104,8461 5028,8593 4952,8725 4858,8819 4726,8895 4594,8971 4465,9006 4313,9006 4161,9006 4032,8971 3900,8895 3768,8819 3674,8725 3598,8593 3522,8461 3487,8332 3487,8180 3487,8028 3522,7899 3598,7767 3674,7635 3768,7541 3900,7465 4032,7389 4161,7354 4313,7354 L 4313,7354 Z"/>
       </g>
      </g>
      <g class="com.sun.star.drawing.CustomShape">
       <g id="id4">
        <rect class="BoundingBox" stroke="none" fill="none" x="4987" y="3416" width="2695" height="2691"/>
        <path fill="rgb(0,0,0)" stroke="none" d="M 6334,3417 C 6582,3417 6793,3473 7007,3597 7222,3721 7376,3875 7500,4089 7624,4303 7681,4514 7681,4761 7681,5008 7624,5219 7500,5433 7376,5647 7222,5801 7007,5925 6793,6049 6582,6105 6334,6105 6086,6105 5875,6049 5661,5925 5446,5801 5292,5647 5168,5433 5044,5219 4988,5008 4988,4761 4988,4514 5044,4303 5168,4089 5292,3875 5446,3721 5661,3597 5875,3473 6086,3417 6334,3417 L 6334,3417 Z"/>
        <path fill="none" stroke="rgb(0,0,0)" d="M 6334,3417 C 6582,3417 6793,3473 7007,3597 7222,3721 7376,3875 7500,4089 7624,4303 7681,4514 7681,4761 7681,5008 7624,5219 7500,5433 7376,5647 7222,5801 7007,5925 6793,6049 6582,6105 6334,6105 6086,6105 5875,6049 5661,5925 5446,5801 5292,5647 5168,5433 5044,5219 4988,5008 4988,4761 4988,4514 5044,4303 5168,4089 5292,3875 5446,3721 5661,3597 5875,3473 6086,3417 6334,3417 L 6334,3417 Z"/>
       </g>
      </g>
      <g class="com.sun.star.drawing.CustomShape">
       <g id="id5">
        <rect class="BoundingBox" stroke="none" fill="none" x="4987" y="3415" width="2695" height="2691"/>
        <path fill="rgb(0,0,0)" stroke="none" d="M 6334,3416 C 6086,3416 5875,3472 5661,3596 5446,3720 5292,3874 5168,4088 5044,4302 4988,4513 4988,4760 4988,5007 5044,5218 5168,5432 5292,5646 5446,5800 5661,5924 5875,6048 6086,6104 6334,6104 6582,6104 6793,6048 7007,5924 7222,5800 7376,5646 7500,5432 7624,5218 7681,5007 7681,4760 7681,4513 7624,4302 7500,4088 7376,3874 7222,3720 7007,3596 6793,3472 6582,3416 6334,3416 L 6334,3416 Z"/>
        <path fill="none" stroke="rgb(0,0,0)" d="M 6334,3416 C 6086,3416 5875,3472 5661,3596 5446,3720 5292,3874 5168,4088 5044,4302 4988,4513 4988,4760 4988,5007 5044,5218 5168,5432 5292,5646 5446,5800 5661,5924 5875,6048 6086,6104 6334,6104 6582,6104 6793,6048 7007,5924 7222,5800 7376,5646 7500,5432 7624,5218 7681,5007 7681,4760 7681,4513 7624,4302 7500,4088 7376,3874 7222,3720 7007,3596 6793,3472 6582,3416 6334,3416 L 6334,3416 Z"/>
       </g>
      </g>
      <g class="com.sun.star.drawing.ConnectorShape">
       <g id="id6">
        <rect class="BoundingBox" stroke="none" fill="none" x="4668" y="6105" width="1777" height="1946"/>
        <path fill="none" stroke="rgb(0,0,0)" d="M 4669,8049 C 4669,6966 6052,7781 6298,6531"/>
        <path fill="rgb(0,0,0)" stroke="none" d="M 6335,6105 L 6145,6539 6443,6567 6335,6105 Z"/>
       </g>
      </g>
      <g class="com.sun.star.drawing.CustomShape">
       <g id="id7">
        <rect class="BoundingBox" stroke="none" fill="none" x="7523" y="7352" width="1655" height="1655"/>
        <path fill="rgb(0,0,0)" stroke="none" d="M 8350,7353 C 8198,7353 8069,7388 7937,7464 7805,7540 7711,7634 7635,7766 7559,7898 7524,8027 7524,8179 7524,8331 7559,8460 7635,8592 7711,8724 7805,8818 7937,8894 8069,8970 8198,9005 8350,9005 8502,9005 8631,8970 8763,8894 8895,8818 8989,8724 9065,8592 9141,8460 9176,8331 9176,8179 9176,8027 9141,7898 9065,7766 8989,7634 8895,7540 8763,7464 8631,7388 8502,7353 8350,7353 L 8350,7353 Z"/>
        <path fill="none" stroke="rgb(0,0,0)" d="M 8350,7353 C 8198,7353 8069,7388 7937,7464 7805,7540 7711,7634 7635,7766 7559,7898 7524,8027 7524,8179 7524,8331 7559,8460 7635,8592 7711,8724 7805,8818 7937,8894 8069,8970 8198,9005 8350,9005 8502,9005 8631,8970 8763,8894 8895,8818 8989,8724 9065,8592 9141,8460 9176,8331 9176,8179 9176,8027 9141,7898 9065,7766 8989,7634 8895,7540 8763,7464 8631,7388 8502,7353 8350,7353 Z"/>
       </g>
      </g>
      <g class="com.sun.star.drawing.CustomShape">
       <g id="id8">
        <rect class="BoundingBox" stroke="none" fill="none" x="4987" y="3415" width="2695" height="2691"/>
        <path fill="rgb(0,0,0)" stroke="none" d="M 6334,3416 C 6086,3416 5875,3472 5661,3596 5446,3720 5292,3874 5168,4088 5044,4302 4988,4513 4988,4760 4988,5007 5044,5218 5168,5432 5292,5646 5446,5800 5661,5924 5875,6048 6086,6104 6334,6104 6582,6104 6793,6048 7007,5924 7222,5800 7376,5646 7500,5432 7624,5218 7681,5007 7681,4760 7681,4513 7624,4302 7500,4088 7376,3874 7222,3720 7007,3596 6793,3472 6582,3416 6334,3416 L 6334,3416 Z"/>
        <path fill="none" stroke="rgb(0,0,0)" d="M 6334,3416 C 6086,3416 5875,3472 5661,3596 5446,3720 5292,3874 5168,4088 5044,4302 4988,4513 4988,4760 4988,5007 5044,5218 5168,5432 5292,5646 5446,5800 5661,5924 5875,6048 6086,6104 6334,6104 6582,6104 6793,6048 7007,5924 7222,5800 7376,5646 7500,5432 7624,5218 7681,5007 7681,4760 7681,4513 7624,4302 7500,4088 7376,3874 7222,3720 7007,3596 6793,3472 6582,3416 6334,3416 L 6334,3416 Z"/>
       </g>
      </g>
      <g class="com.sun.star.drawing.CustomShape">
       <g id="id9">
        <rect class="BoundingBox" stroke="none" fill="none" x="4987" y="3414" width="2695" height="2691"/>
        <path fill="rgb(0,0,0)" stroke="none" d="M 6334,3415 C 6582,3415 6793,3471 7007,3595 7222,3719 7376,3873 7500,4087 7624,4301 7681,4512 7681,4759 7681,5006 7624,5217 7500,5431 7376,5645 7222,5799 7007,5923 6793,6047 6582,6103 6334,6103 6086,6103 5875,6047 5661,5923 5446,5799 5292,5645 5168,5431 5044,5217 4988,5006 4988,4759 4988,4512 5044,4301 5168,4087 5292,3873 5446,3719 5661,3595 5875,3471 6086,3415 6334,3415 L 6334,3415 Z"/>
        <path fill="none" stroke="rgb(0,0,0)" d="M 6334,3415 C 6582,3415 6793,3471 7007,3595 7222,3719 7376,3873 7500,4087 7624,4301 7681,4512 7681,4759 7681,5006 7624,5217 7500,5431 7376,5645 7222,5799 7007,5923 6793,6047 6582,6103 6334,6103 6086,6103 5875,6047 5661,5923 5446,5799 5292,5645 5168,5431 5044,5217 4988,5006 4988,4759 4988,4512 5044,4301 5168,4087 5292,3873 5446,3719 5661,3595 5875,3471 6086,3415 6334,3415 L 6334,3415 Z"/>
       </g>
      </g>
      <g class="com.sun.star.drawing.ConnectorShape">
       <g id="id10">
        <rect class="BoundingBox" stroke="none" fill="none" x="6225" y="6104" width="1776" height="1946"/>
        <path fill="none" stroke="rgb(0,0,0)" d="M 7999,8048 C 7999,6965 6617,7780 6371,6530"/>
        <path fill="rgb(0,0,0)" stroke="none" d="M 6334,6104 L 6226,6566 6524,6538 6334,6104 Z"/>
       </g>
      </g>
      <g class="Group">
       <g class="com.sun.star.drawing.CustomShape">
        <g id="id11">
         <rect class="BoundingBox" stroke="none" fill="none" x="2887" y="9645" width="852" height="853"/>
         <path fill="rgb(0,0,0)" stroke="none" d="M 3313,9646 C 3391,9646 3458,9663 3525,9703 3593,9742 3642,9790 3681,9858 3720,9926 3737,9993 3737,10071 3737,10149 3720,10216 3681,10284 3642,10352 3593,10400 3525,10439 3458,10479 3391,10497 3313,10497 3235,10497 3168,10479 3101,10439 3033,10400 2984,10352 2945,10284 2906,10216 2888,10149 2888,10071 2888,9993 2906,9926 2945,9858 2984,9790 3033,9742 3101,9703 3168,9663 3235,9646 3313,9646 L 3313,9646 Z"/>
         <path fill="none" stroke="rgb(0,0,0)" d="M 3313,9646 C 3391,9646 3458,9663 3525,9703 3593,9742 3642,9790 3681,9858 3720,9926 3737,9993 3737,10071 3737,10149 3720,10216 3681,10284 3642,10352 3593,10400 3525,10439 3458,10479 3391,10497 3313,10497 3235,10497 3168,10479 3101,10439 3033,10400 2984,10352 2945,10284 2906,10216 2888,10149 2888,10071 2888,9993 2906,9926 2945,9858 2984,9790 3033,9742 3101,9703 3168,9663 3235,9646 3313,9646 L 3313,9646 Z"/>
        </g>
       </g>
       <g class="com.sun.star.drawing.CustomShape">
        <g id="id12">
         <rect class="BoundingBox" stroke="none" fill="none" x="3656" y="7614" width="1385" height="1389"/>
         <path fill="rgb(0,0,0)" stroke="none" d="M 4348,7615 C 4475,7615 4583,7644 4693,7708 4804,7772 4883,7851 4946,7962 5010,8072 5039,8180 5039,8308 5039,8436 5010,8544 4946,8655 4883,8765 4804,8844 4693,8908 4583,8972 4475,9001 4348,9001 4221,9001 4113,8972 4003,8908 3892,8844 3813,8765 3750,8655 3686,8544 3657,8436 3657,8308 3657,8180 3686,8072 3750,7962 3813,7851 3892,7772 4002,7708 4113,7644 4221,7615 4348,7615 L 4348,7615 Z"/>
         <path fill="none" stroke="rgb(0,0,0)" d="M 4348,7615 C 4475,7615 4583,7644 4693,7708 4804,7772 4883,7851 4946,7962 5010,8072 5039,8180 5039,8308 5039,8436 5010,8544 4946,8655 4883,8765 4804,8844 4693,8908 4583,8972 4475,9001 4348,9001 4221,9001 4113,8972 4003,8908 3892,8844 3813,8765 3750,8655 3686,8544 3657,8436 3657,8308 3657,8180 3686,8072 3750,7962 3813,7851 3892,7772 4002,7708 4113,7644 4221,7615 4348,7615 Z"/>
        </g>
       </g>
       <g class="com.sun.star.drawing.CustomShape">
        <g id="id13">
         <rect class="BoundingBox" stroke="none" fill="none" x="3654" y="7614" width="1385" height="1389"/>
         <path fill="rgb(0,0,0)" stroke="none" d="M 4346,7615 C 4219,7615 4111,7644 4001,7708 3890,7772 3811,7851 3748,7962 3684,8072 3655,8180 3655,8308 3655,8436 3684,8544 3748,8655 3811,8765 3890,8844 4001,8908 4111,8972 4219,9001 4346,9001 4473,9001 4581,8972 4691,8908 4802,8844 4881,8765 4944,8655 5008,8544 5037,8436 5037,8308 5037,8180 5008,8072 4944,7962 4881,7851 4802,7772 4691,7708 4581,7644 4473,7615 4346,7615 L 4346,7615 Z"/>
         <path fill="none" stroke="rgb(0,0,0)" d="M 4346,7615 C 4219,7615 4111,7644 4001,7708 3890,7772 3811,7851 3748,7962 3684,8072 3655,8180 3655,8308 3655,8436 3684,8544 3748,8655 3811,8765 3890,8844 4001,8908 4111,8972 4219,9001 4346,9001 4473,9001 4581,8972 4691,8908 4802,8844 4881,8765 4944,8655 5008,8544 5037,8436 5037,8308 5037,8180 5008,8072 4944,7962 4881,7851 4802,7772 4691,7708 4581,7644 4473,7615 4346,7615 L 4346,7615 Z"/>
        </g>
       </g>
       <g class="com.sun.star.drawing.ConnectorShape">
        <g id="id14">
         <rect class="BoundingBox" stroke="none" fill="none" x="3494" y="9002" width="937" height="1004"/>
         <path fill="none" stroke="rgb(0,0,0)" d="M 3495,10004 C 3495,9628 4095,9990 4287,9429"/>
         <path fill="rgb(0,0,0)" stroke="none" d="M 4346,9002 L 4132,9426 4429,9469 4346,9002 Z"/>
        </g>
       </g>
       <g class="com.sun.star.drawing.CustomShape">
        <g id="id15">
         <rect class="BoundingBox" stroke="none" fill="none" x="4961" y="9644" width="851" height="853"/>
         <path fill="rgb(0,0,0)" stroke="none" d="M 5386,9645 C 5308,9645 5241,9662 5174,9702 5106,9741 5057,9789 5018,9857 4979,9925 4962,9992 4962,10070 4962,10148 4979,10215 5018,10283 5057,10351 5106,10399 5174,10438 5241,10478 5308,10495 5386,10495 5464,10495 5531,10478 5598,10438 5666,10399 5715,10351 5754,10283 5793,10215 5811,10148 5811,10070 5811,9992 5793,9925 5754,9857 5715,9789 5666,9741 5598,9702 5531,9662 5464,9645 5386,9645 L 5386,9645 Z"/>
         <path fill="none" stroke="rgb(0,0,0)" d="M 5386,9645 C 5308,9645 5241,9662 5174,9702 5106,9741 5057,9789 5018,9857 4979,9925 4962,9992 4962,10070 4962,10148 4979,10215 5018,10283 5057,10351 5106,10399 5174,10438 5241,10478 5308,10495 5386,10495 5464,10495 5531,10478 5598,10438 5666,10399 5715,10351 5754,10283 5793,10215 5811,10148 5811,10070 5811,9992 5793,9925 5754,9857 5715,9789 5666,9741 5598,9702 5531,9662 5464,9645 5386,9645 Z"/>
        </g>
       </g>
       <g class="com.sun.star.drawing.CustomShape">
        <g id="id16">
         <rect class="BoundingBox" stroke="none" fill="none" x="3654" y="7614" width="1385" height="1389"/>
         <path fill="rgb(0,0,0)" stroke="none" d="M 4346,7615 C 4219,7615 4111,7644 4001,7708 3890,7772 3811,7851 3748,7962 3684,8072 3655,8180 3655,8308 3655,8436 3684,8544 3748,8655 3811,8765 3890,8844 4001,8908 4111,8972 4219,9001 4346,9001 4473,9001 4581,8972 4691,8908 4802,8844 4881,8765 4944,8655 5008,8544 5037,8436 5037,8308 5037,8180 5008,8072 4944,7962 4881,7851 4802,7772 4691,7708 4581,7644 4473,7615 4346,7615 L 4346,7615 Z"/>
         <path fill="none" stroke="rgb(0,0,0)" d="M 4346,7615 C 4219,7615 4111,7644 4001,7708 3890,7772 3811,7851 3748,7962 3684,8072 3655,8180 3655,8308 3655,8436 3684,8544 3748,8655 3811,8765 3890,8844 4001,8908 4111,8972 4219,9001 4346,9001 4473,9001 4581,8972 4691,8908 4802,8844 4881,8765 4944,8655 5008,8544 5037,8436 5037,8308 5037,8180 5008,8072 4944,7962 4881,7851 4802,7772 4691,7708 4581,7644 4473,7615 4346,7615 L 4346,7615 Z"/>
        </g>
       </g>
       <g class="com.sun.star.drawing.CustomShape">
        <g id="id17">
         <rect class="BoundingBox" stroke="none" fill="none" x="3656" y="7613" width="1385" height="1389"/>
         <path fill="rgb(0,0,0)" stroke="none" d="M 4348,7614 C 4475,7614 4583,7643 4693,7707 4804,7771 4883,7850 4946,7961 5010,8071 5039,8179 5039,8307 5039,8435 5010,8543 4946,8654 4883,8764 4804,8843 4693,8907 4583,8971 4475,9000 4348,9000 4221,9000 4113,8971 4003,8907 3892,8843 3813,8764 3750,8654 3686,8543 3657,8435 3657,8307 3657,8179 3686,8071 3750,7961 3813,7850 3892,7771 4002,7707 4113,7643 4221,7614 4348,7614 L 4348,7614 Z"/>
         <path fill="none" stroke="rgb(0,0,0)" d="M 4348,7614 C 4475,7614 4583,7643 4693,7707 4804,7771 4883,7850 4946,7961 5010,8071 5039,8179 5039,8307 5039,8435 5010,8543 4946,8654 4883,8764 4804,8843 4693,8907 4583,8971 4475,9000 4348,9000 4221,9000 4113,8971 4003,8907 3892,8843 3813,8764 3750,8654 3686,8543 3657,8435 3657,8307 3657,8179 3686,8071 3750,7961 3813,7850 3892,7771 4002,7707 4113,7643 4221,7614 4348,7614 Z"/>
        </g>
       </g>
       <g class="com.sun.star.drawing.ConnectorShape">
        <g id="id18">
         <rect class="BoundingBox" stroke="none" fill="none" x="4266" y="9001" width="940" height="1005"/>
         <path fill="none" stroke="rgb(0,0,0)" d="M 5204,10004 C 5204,9628 4602,9991 4409,9428"/>
         <path fill="rgb(0,0,0)" stroke="none" d="M 4350,9001 L 4267,9468 4564,9425 4350,9001 Z"/>
        </g>
       </g>
      </g>
      <g class="Group">
       <g class="com.sun.star.drawing.CustomShape">
        <g id="id19">
         <rect class="BoundingBox" stroke="none" fill="none" x="7657" y="7612" width="1385" height="1389"/>
         <path fill="rgb(0,0,0)" stroke="none" d="M 8349,7613 C 8476,7613 8584,7642 8695,7706 8805,7770 8884,7849 8947,7960 9011,8070 9040,8178 9040,8306 9040,8434 9011,8542 8947,8653 8884,8763 8805,8842 8695,8906 8584,8970 8476,8999 8349,8999 8222,8999 8114,8970 8004,8906 7893,8842 7814,8763 7751,8653 7687,8542 7658,8434 7658,8306 7658,8178 7687,8070 7751,7960 7814,7849 7893,7770 8003,7706 8114,7642 8222,7613 8349,7613 L 8349,7613 Z"/>
         <path fill="none" stroke="rgb(0,0,0)" d="M 8349,7613 C 8476,7613 8584,7642 8695,7706 8805,7770 8884,7849 8947,7960 9011,8070 9040,8178 9040,8306 9040,8434 9011,8542 8947,8653 8884,8763 8805,8842 8695,8906 8584,8970 8476,8999 8349,8999 8222,8999 8114,8970 8004,8906 7893,8842 7814,8763 7751,8653 7687,8542 7658,8434 7658,8306 7658,8178 7687,8070 7751,7960 7814,7849 7893,7770 8003,7706 8114,7642 8222,7613 8349,7613 Z"/>
        </g>
       </g>
       <g class="com.sun.star.drawing.CustomShape">
        <g id="id20">
         <rect class="BoundingBox" stroke="none" fill="none" x="7655" y="7612" width="1385" height="1389"/>
         <path fill="rgb(0,0,0)" stroke="none" d="M 8347,7613 C 8220,7613 8112,7642 8001,7706 7891,7770 7812,7849 7749,7960 7685,8070 7656,8178 7656,8306 7656,8434 7685,8542 7749,8653 7812,8763 7891,8842 8001,8906 8112,8970 8220,8999 8347,8999 8474,8999 8582,8970 8692,8906 8803,8842 8882,8763 8945,8653 9009,8542 9038,8434 9038,8306 9038,8178 9009,8070 8945,7960 8882,7849 8803,7770 8692,7706 8582,7642 8474,7613 8347,7613 L 8347,7613 Z"/>
         <path fill="none" stroke="rgb(0,0,0)" d="M 8347,7613 C 8220,7613 8112,7642 8001,7706 7891,7770 7812,7849 7749,7960 7685,8070 7656,8178 7656,8306 7656,8434 7685,8542 7749,8653 7812,8763 7891,8842 8001,8906 8112,8970 8220,8999 8347,8999 8474,8999 8582,8970 8692,8906 8803,8842 8882,8763 8945,8653 9009,8542 9038,8434 9038,8306 9038,8178 9009,8070 8945,7960 8882,7849 8803,7770 8692,7706 8582,7642 8474,7613 8347,7613 Z"/>
        </g>
       </g>
       <g class="com.sun.star.drawing.CustomShape">
        <g id="id21">
         <rect class="BoundingBox" stroke="none" fill="none" x="7655" y="7612" width="1385" height="1389"/>
         <path fill="rgb(0,0,0)" stroke="none" d="M 8347,7613 C 8220,7613 8112,7642 8001,7706 7891,7770 7812,7849 7749,7960 7685,8070 7656,8178 7656,8306 7656,8434 7685,8542 7749,8653 7812,8763 7891,8842 8001,8906 8112,8970 8220,8999 8347,8999 8474,8999 8582,8970 8692,8906 8803,8842 8882,8763 8945,8653 9009,8542 9038,8434 9038,8306 9038,8178 9009,8070 8945,7960 8882,7849 8803,7770 8692,7706 8582,7642 8474,7613 8347,7613 L 8347,7613 Z"/>
         <path fill="none" stroke="rgb(0,0,0)" d="M 8347,7613 C 8220,7613 8112,7642 8001,7706 7891,7770 7812,7849 7749,7960 7685,8070 7656,8178 7656,8306 7656,8434 7685,8542 7749,8653 7812,8763 7891,8842 8001,8906 8112,8970 8220,8999 8347,8999 8474,8999 8582,8970 8692,8906 8803,8842 8882,8763 8945,8653 9009,8542 9038,8434 9038,8306 9038,8178 9009,8070 8945,7960 8882,7849 8803,7770 8692,7706 8582,7642 8474,7613 8347,7613 Z"/>
        </g>
       </g>
       <g class="com.sun.star.drawing.CustomShape">
        <g id="id22">
         <rect class="BoundingBox" stroke="none" fill="none" x="7657" y="7611" width="1385" height="1389"/>
         <path fill="rgb(0,0,0)" stroke="none" d="M 8349,7612 C 8476,7612 8584,7641 8695,7705 8805,7769 8884,7848 8947,7959 9011,8069 9040,8177 9040,8305 9040,8433 9011,8541 8947,8652 8884,8762 8805,8841 8695,8905 8584,8969 8476,8998 8349,8998 8222,8998 8114,8969 8004,8905 7893,8841 7814,8762 7751,8652 7687,8541 7658,8433 7658,8305 7658,8177 7687,8069 7751,7959 7814,7848 7893,7769 8003,7705 8114,7641 8222,7612 8349,7612 L 8349,7612 Z"/>
         <path fill="none" stroke="rgb(0,0,0)" d="M 8349,7612 C 8476,7612 8584,7641 8695,7705 8805,7769 8884,7848 8947,7959 9011,8069 9040,8177 9040,8305 9040,8433 9011,8541 8947,8652 8884,8762 8805,8841 8695,8905 8584,8969 8476,8998 8349,8998 8222,8998 8114,8969 8004,8905 7893,8841 7814,8762 7751,8652 7687,8541 7658,8433 7658,8305 7658,8177 7687,8069 7751,7959 7814,7848 7893,7769 8003,7705 8114,7641 8222,7612 8349,7612 Z"/>
        </g>
       </g>
      </g>
     </g>
    </g>
   </g>
  </g>
 </g>
</svg>