<svg xmlns="http://www.w3.org/2000/svg" viewBox="0 0 1125 373.12"><defs><style>.cls-1{fill:#a5a5a5;}.cls-2{fill:#494949;}.cls-11,.cls-13,.cls-3{fill:none;stroke-width:3px;}.cls-3,.cls-5,.cls-6{stroke:#000;}.cls-11,.cls-13,.cls-3,.cls-5,.cls-6{stroke-miterlimit:10;}.cls-4,.cls-7,.cls-8{fill:#fff;}.cls-10,.cls-12,.cls-5{fill:#c1272d;}.cls-10,.cls-7,.cls-8,.cls-9{font-size:36px;}.cls-7,.cls-9{font-family:ArialMT, Arial;}.cls-10,.cls-8{font-family:TimesNewRomanPS-ItalicMT, Times New Roman;font-style:italic;}.cls-14,.cls-9{fill:#0071bc;}.cls-11{stroke:#c1272d;}.cls-13{stroke:#0071bc;}</style></defs><title>Asset 1</title><g id="Layer_2" data-name="Layer 2"><g id="Layer_1-2" data-name="Layer 1"><path class="cls-1" d="M530,264.62a54.5,54.5,0,1,1,54.5-54.5A54.56,54.56,0,0,1,530,264.62Z"/><path d="M530,156.12a54,54,0,1,1-54,54,54.06,54.06,0,0,1,54-54m0-1a55,55,0,1,0,55,55,55,55,0,0,0-55-55Z"/><path class="cls-2" d="M336,294.62a84.5,84.5,0,1,1,84.5-84.5A84.6,84.6,0,0,1,336,294.62Z"/><path d="M336,126.12a84,84,0,1,1-84,84,84.1,84.1,0,0,1,84-84m0-1a85,85,0,1,0,85,85,85,85,0,0,0-85-85Z"/><line class="cls-3" x1="420.5" y1="210.62" x2="437.5" y2="177.62"/><line class="cls-4" x1="420.5" y1="210.62" x2="437.5" y2="177.62"/><line class="cls-3" x1="457.5" y1="243.62" x2="475.5" y2="210.62"/><line class="cls-4" x1="457.5" y1="243.62" x2="475.5" y2="210.62"/><line class="cls-3" x1="457.5" y1="243.62" x2="437.5" y2="177.62"/><line class="cls-4" x1="457.5" y1="243.62" x2="437.5" y2="177.62"/><line class="cls-3" x1="584.5" y1="218.62" x2="601.5" y2="185.62"/><line class="cls-4" x1="584.5" y1="218.62" x2="601.5" y2="185.62"/><line class="cls-3" x1="621.5" y1="251.62" x2="639.5" y2="218.62"/><line class="cls-4" x1="621.5" y1="251.62" x2="639.5" y2="218.62"/><line class="cls-3" x1="621.5" y1="251.62" x2="601.5" y2="185.62"/><line class="cls-4" x1="621.5" y1="251.62" x2="601.5" y2="185.62"/><path class="cls-1" d="M918,264.62a54.5,54.5,0,1,1,54.5-54.5A54.56,54.56,0,0,1,918,264.62Z"/><path d="M918,156.12a54,54,0,1,1-54,54,54.06,54.06,0,0,1,54-54m0-1a55,55,0,1,0,55,55,55,55,0,0,0-55-55Z"/><circle cx="1057" cy="210.12" r="7.5"/><path d="M1057,203.12a7,7,0,1,1-7,7,7,7,0,0,1,7-7m0-1a8,8,0,1,0,8,8,8,8,0,0,0-8-8Z"/><circle cx="1087" cy="210.12" r="7.5"/><path d="M1087,203.12a7,7,0,1,1-7,7,7,7,0,0,1,7-7m0-1a8,8,0,1,0,8,8,8,8,0,0,0-8-8Z"/><circle cx="1117" cy="210.12" r="7.5"/><path d="M1117,203.12a7,7,0,1,1-7,7,7,7,0,0,1,7-7m0-1a8,8,0,1,0,8,8,8,8,0,0,0-8-8Z"/><path class="cls-2" d="M724,294.62a84.5,84.5,0,1,1,84.5-84.5A84.6,84.6,0,0,1,724,294.62Z"/><path d="M724,126.12a84,84,0,1,1-84,84,84.1,84.1,0,0,1,84-84m0-1a85,85,0,1,0,85,85,85,85,0,0,0-85-85Z"/><line class="cls-3" x1="808.5" y1="210.62" x2="825.5" y2="177.62"/><line class="cls-4" x1="808.5" y1="210.62" x2="825.5" y2="177.62"/><line class="cls-3" x1="845.5" y1="243.62" x2="863.5" y2="210.62"/><line class="cls-4" x1="845.5" y1="243.62" x2="863.5" y2="210.62"/><line class="cls-3" x1="845.5" y1="243.62" x2="825.5" y2="177.62"/><line class="cls-4" x1="845.5" y1="243.62" x2="825.5" y2="177.62"/><line class="cls-3" x1="972.5" y1="218.62" x2="989.5" y2="185.62"/><line class="cls-4" x1="972.5" y1="218.62" x2="989.5" y2="185.62"/><line class="cls-3" x1="1009.5" y1="251.62" x2="1027.5" y2="218.62"/><line class="cls-4" x1="1009.5" y1="251.62" x2="1027.5" y2="218.62"/><line class="cls-3" x1="1009.5" y1="251.62" x2="989.5" y2="185.62"/><line class="cls-4" x1="1009.5" y1="251.62" x2="989.5" y2="185.62"/><rect class="cls-5" x="0.5" y="144.62" width="192" height="138"/><rect class="cls-6" x="192.5" y="176.62" width="21" height="73"/><rect class="cls-5" x="213.5" y="208.62" width="38" height="10"/><text class="cls-7" transform="translate(36 225.89)">Shaker</text><text class="cls-8" transform="translate(317.75 216.32)">m1</text><text class="cls-9" transform="translate(377.98 30.89)">elastic <tspan x="9" y="43.2">wave</tspan></text><text class="cls-10" transform="translate(243 343.32)">f</text><text class="cls-8" transform="translate(709.75 215.32)">m1</text><text class="cls-8" transform="translate(514.75 216.32)">m2</text><text class="cls-8" transform="translate(899.75 216.32)">m2</text><line class="cls-11" x1="231.11" y1="304.12" x2="264.89" y2="304.12"/><path class="cls-12" d="M213,304.12c8.52,3.16,19.09,8.55,25.64,14.27l-5.16-14.27,5.16-14.26C232.09,295.57,221.52,301,213,304.12Z"/><path class="cls-12" d="M283,304.12c-8.52,3.16-19.09,8.55-25.64,14.27l5.16-14.27-5.16-14.26C263.91,295.57,274.48,301,283,304.12Z"/><path class="cls-13" d="M277.5,101.38c6.73,1.24,17.56,2.63,28.5.75,37.7-6.47,36.16-46,51-45,11.54.75,14.18,14,38,46,18.68,25.09,28.28,37.65,41,38,15.43.42,10-31.44,46-40.49a78.12,78.12,0,0,1,10.4-1.84"/><path class="cls-14" d="M510.5,98.38c-8.41,3.43-18.81,9.16-25.18,15.08L490,99l-5.61-14.09C491.15,90.44,501.88,95.49,510.5,98.38Z"/></g></g></svg>